<?xml version="1.0" standalone="no"?>
<!DOCTYPE svg PUBLIC "-//W3C//DTD SVG 20010904//EN"
 "http://www.w3.org/TR/2001/REC-SVG-20010904/DTD/svg10.dtd">
<svg version="1.0" xmlns="http://www.w3.org/2000/svg"
 width="183.000000pt" height="183.000000pt" viewBox="0 0 183.000000 183.000000"
 preserveAspectRatio="xMidYMid meet">

<g transform="translate(0.000000,183.000000) scale(0.100000,-0.100000)"
fill="#000000" stroke="none">
<path d="M890 1699 c-67 -27 -92 -83 -64 -145 9 -22 16 -42 16 -46 -1 -5 1 -7
6 -7 18 3 33 -2 28 -9 -8 -13 101 3 119 18 20 17 45 63 45 85 0 36 -34 88 -66
101 -38 16 -50 16 -84 3z m110 -46 c22 -28 26 -73 9 -104 -5 -11 -15 -17 -22
-13 -7 4 -9 4 -5 -1 13 -14 -13 -35 -44 -35 -49 0 -86 26 -99 70 -32 106 92
170 161 83z"/>
<path d="M911 1656 c-21 -12 -22 -14 -5 -20 10 -4 15 -4 11 0 -4 4 1 13 11 20
22 17 14 17 -17 0z"/>
<path d="M987 1613 c3 -7 9 -13 14 -13 5 0 9 6 9 13 0 8 -6 14 -14 14 -8 0
-12 -6 -9 -14z"/>
<path d="M991 1564 c0 -11 3 -14 6 -6 3 7 2 16 -1 19 -3 4 -6 -2 -5 -13z"/>
<path d="M865 1540 c-4 -6 -3 -10 2 -9 4 1 21 -1 36 -6 17 -4 37 -3 50 3 20
10 20 10 -8 9 -16 -1 -40 2 -52 6 -12 5 -24 3 -28 -3z"/>
<path d="M615 1596 c34 -14 61 -43 51 -53 -3 -3 -6 -2 -6 4 0 5 -17 18 -38 27
-36 16 -42 16 -77 2 l-38 -16 19 21 c19 22 19 22 -3 10 -24 -12 -53 -59 -53
-85 0 -34 39 -102 64 -114 37 -16 71 -15 90 4 9 8 16 12 16 8 0 -4 14 10 30
31 41 52 41 102 -1 144 -19 20 -40 31 -57 31 l-27 -1 30 -13z m5 -62 c0 -9 -5
-14 -12 -12 -18 6 -21 28 -4 28 9 0 16 -7 16 -16z"/>
<path d="M806 1469 c3 -5 12 -9 19 -9 17 0 34 -30 28 -50 -4 -13 -3 -13 6 0 9
12 11 9 11 -15 0 -24 -2 -27 -11 -15 -8 12 -9 10 -4 -9 5 -16 4 -21 -4 -17 -6
4 -10 2 -9 -5 5 -19 -50 -33 -79 -20 -13 6 -21 16 -17 22 4 8 9 8 17 0 13 -13
54 -15 61 -2 3 5 -1 12 -10 15 -24 9 -31 7 -14 -4 12 -8 11 -10 -7 -10 -17 0
-21 5 -18 21 4 21 4 21 -15 4 -11 -10 -23 -15 -27 -12 -3 4 -3 7 2 7 4 0 2 6
-4 14 -8 10 -9 16 -1 21 6 3 7 11 4 17 -4 7 -2 8 4 4 8 -5 10 -2 6 8 -3 9 -2
16 4 16 21 0 20 -29 -1 -44 -13 -9 -16 -15 -7 -13 23 3 39 29 29 48 -4 9 -5
20 -1 24 4 4 -3 2 -16 -4 -23 -12 -42 -48 -42 -78 0 -9 16 -31 35 -49 32 -30
38 -32 65 -22 36 12 70 52 70 83 0 28 -33 71 -60 78 -11 3 -18 1 -14 -4z"/>
<path d="M793 1443 c9 -2 15 -8 13 -12 -3 -4 4 -8 15 -8 17 -2 17 0 5 13 -8 8
-23 13 -33 13 -17 -1 -17 -2 0 -6z"/>
<path d="M817 1379 c7 -7 15 -10 18 -7 3 3 -2 9 -12 12 -14 6 -15 5 -6 -5z"/>
<path d="M235 1339 c-30 -26 -35 -38 -35 -73 0 -52 46 -126 70 -111 5 3 10 1
10 -4 0 -6 14 -11 31 -11 20 0 28 4 23 11 -4 7 -1 10 7 7 21 -7 68 41 79 81 8
28 6 43 -8 71 -33 67 -117 81 -177 29z m141 -10 c13 -12 24 -27 24 -31 0 -5
-7 -2 -16 6 -8 9 -20 13 -26 10 -7 -4 -8 -2 -4 4 4 7 1 13 -6 14 -54 6 -76 4
-98 -9 l-25 -16 25 27 c21 24 31 27 63 23 22 -3 50 -16 63 -28z m-33 -25 c3
-3 3 -12 0 -20 -4 -11 -9 -12 -19 -3 -8 6 -11 15 -8 20 6 10 18 12 27 3z
m-102 -87 c-10 -9 -11 -8 -5 6 3 10 9 15 12 12 3 -3 0 -11 -7 -18z m143 -2 c3
-8 0 -14 -6 -12 -7 1 -12 -3 -13 -10 0 -20 -13 -25 -32 -13 -16 10 -16 10 4 5
17 -5 21 -2 19 12 -2 10 2 21 8 25 14 10 13 10 20 -7z m-74 -38 c0 -2 -9 -3
-20 -4 -11 -1 -18 2 -15 8 6 8 -8 13 -28 10 -5 -1 -6 3 -2 9 4 6 16 5 36 -5
16 -9 29 -17 29 -18z m23 26 c-7 -2 -19 -2 -25 0 -7 3 -2 5 12 5 14 0 19 -2
13 -5z"/>
<path d="M1307 1335 c38 -16 51 -54 35 -99 -10 -28 -10 -29 3 -12 23 30 18 74
-10 101 -13 14 -32 25 -42 25 -11 -1 -5 -6 14 -15z"/>
<path d="M1537 1335 c59 -25 74 -72 48 -150 -4 -14 -2 -12 9 5 26 42 20 97
-13 131 -16 16 -40 29 -53 29 -20 -1 -19 -2 9 -15z"/>
<path d="M597 1314 c15 -15 20 -21 10 -14 -10 8 -38 16 -63 20 -39 6 -47 4
-59 -14 -8 -11 -15 -30 -15 -42 0 -32 30 -86 45 -80 8 3 15 0 18 -7 5 -17 63
10 87 41 11 13 20 35 20 47 0 27 -36 75 -56 75 -10 0 -6 -9 13 -26z m-17 -34
c0 -5 -2 -10 -4 -10 -3 0 -8 5 -11 10 -3 6 -1 10 4 10 6 0 11 -4 11 -10z"/>
<path d="M1216 1321 c-10 -11 -16 -26 -13 -33 4 -10 6 -10 6 1 1 8 8 23 18 33
9 10 14 18 11 18 -3 0 -13 -9 -22 -19z"/>
<path d="M1416 1309 c-38 -45 -35 -92 8 -135 19 -19 42 -34 52 -34 14 0 10 5
-13 20 -17 10 -37 28 -42 39 -18 32 -13 86 10 115 29 36 16 33 -15 -5z"/>
<path d="M761 1260 l24 -21 -22 -15 c-13 -9 -23 -23 -23 -31 0 -11 6 -8 20 8
15 19 19 21 20 7 0 -9 -5 -19 -10 -21 -6 -3 -5 -4 2 -3 20 4 20 69 1 84 -28
20 -37 14 -12 -8z"/>
<path d="M1120 1276 c0 -2 8 -10 18 -17 15 -13 16 -12 3 4 -13 16 -21 21 -21
13z"/>
<path d="M687 1264 c-8 -8 3 -34 15 -34 5 0 6 5 2 12 -5 8 -2 9 9 5 9 -3 19
-1 23 6 4 7 4 9 -1 5 -4 -4 -15 -3 -25 2 -10 5 -20 7 -23 4z"/>
<path d="M1045 1259 c-4 -6 -5 -12 -2 -15 2 -3 7 2 10 11 7 17 1 20 -8 4z"/>
<path d="M1201 1254 c0 -11 11 -31 27 -45 l27 -24 -22 25 c-11 14 -23 34 -26
45 -5 19 -5 19 -6 -1z"/>
<path d="M670 1223 c0 -11 6 -27 13 -37 12 -16 14 -16 14 -2 0 9 -4 16 -9 16
-4 0 -8 5 -8 10 0 7 7 7 20 0 11 -6 18 -15 15 -21 -4 -5 -1 -9 4 -9 20 0 11
19 -19 40 -28 20 -30 20 -30 3z"/>
<path d="M1151 1224 c0 -11 3 -14 6 -6 3 7 2 16 -1 19 -3 4 -6 -2 -5 -13z"/>
<path d="M1553 1165 c0 -8 4 -12 9 -9 5 3 6 10 3 15 -9 13 -12 11 -12 -6z"/>
<path d="M718 1163 c6 -2 18 -2 25 0 6 3 1 5 -13 5 -14 0 -19 -2 -12 -5z"/>
<path d="M815 1151 c-56 -25 -101 -66 -133 -120 -23 -40 -27 -57 -27 -126 0
-93 19 -137 82 -196 47 -44 79 -64 118 -73 16 -4 33 -13 37 -19 4 -7 8 -112 8
-235 0 -207 1 -223 18 -220 15 3 17 23 20 235 l2 231 37 7 c138 26 237 171
218 320 -6 49 -12 61 -63 114 -32 33 -78 69 -102 80 -59 27 -159 28 -215 2z
m173 -3 c34 -8 60 -25 98 -63 55 -55 66 -86 65 -182 -1 -164 -162 -279 -306
-219 -52 22 -73 42 -101 98 -43 84 -29 155 41 217 30 26 44 31 88 31 96 0 154
-60 144 -149 -6 -53 -50 -101 -93 -101 -38 0 -81 29 -99 67 -14 29 -14 36 -1
62 23 44 73 55 108 24 24 -21 23 -54 -2 -83 -24 -27 -25 -36 -5 -43 24 -10 65
49 65 94 0 64 -51 99 -123 85 -111 -21 -125 -189 -20 -232 45 -19 80 -17 129
6 73 36 103 107 78 189 -24 81 -81 121 -172 121 -81 0 -144 -41 -184 -120
l-28 -55 6 45 c9 59 50 136 91 167 65 50 135 63 221 41z"/>
<path d="M1263 1126 c21 -22 22 -60 1 -80 -27 -27 -60 -19 -82 19 -10 17 -11
18 -12 3 0 -25 45 -52 75 -44 33 8 52 48 39 83 -5 15 -16 29 -24 31 -11 4 -10
1 3 -12z"/>
<path d="M560 1119 c0 -6 -4 -7 -10 -4 -5 3 -12 -6 -16 -21 -10 -38 15 -79 46
-79 37 0 72 25 67 47 -3 10 -1 16 4 12 17 -10 9 14 -12 37 -11 13 -18 18 -14
12 7 -15 8 -15 -33 -4 -21 6 -32 6 -32 0z"/>
<path d="M1176 1115 c-9 -26 -7 -32 5 -12 6 10 9 21 6 23 -2 3 -7 -2 -11 -11z"/>
<path d="M355 1103 c-27 -27 -36 -60 -23 -90 6 -16 11 -31 10 -35 -1 -5 1 -7
6 -6 4 1 17 -3 29 -10 28 -16 58 -6 42 14 -7 8 -9 17 -5 21 3 4 12 -2 20 -12
12 -17 14 -17 34 3 30 30 29 82 -1 110 -35 33 -50 26 -16 -7 16 -17 29 -39 28
-53 -1 -19 -2 -17 -10 9 -11 38 -16 41 -63 47 -28 4 -39 1 -51 -17 -8 -12 -15
-16 -15 -10 0 6 12 21 26 32 15 12 22 21 16 21 -6 0 -18 -7 -27 -17z m85 -44
c0 -5 -7 -9 -15 -9 -8 0 -15 7 -15 15 0 9 6 12 15 9 8 -4 15 -10 15 -15z m-83
-51 c-3 -8 -6 -5 -6 6 -1 11 2 17 5 13 3 -3 4 -12 1 -19z m38 -26 c-3 -3 -11
0 -18 7 -9 10 -8 11 6 5 10 -3 15 -9 12 -12z"/>
<path d="M1438 1101 c43 -28 54 -57 35 -101 -13 -33 -13 -34 4 -18 40 40 13
116 -47 133 -21 5 -20 3 8 -14z"/>
<path d="M1352 1087 c-13 -13 -22 -36 -22 -53 0 -30 31 -74 51 -74 6 0 2 8
-10 18 -11 9 -24 31 -27 49 -5 26 -1 37 19 57 15 14 23 26 18 26 -4 0 -17 -10
-29 -23z"/>
<path d="M1564 1020 c-56 -22 -79 -93 -49 -150 43 -83 167 -71 205 19 26 64
-28 142 -97 140 -21 0 -48 -4 -59 -9z m95 -14 c28 -15 51 -53 51 -86 0 -86
-105 -125 -164 -59 -24 27 -27 38 -23 73 10 72 72 105 136 72z"/>
<path d="M155 996 c-59 -27 -83 -75 -65 -131 24 -73 104 -97 171 -52 42 28 56
64 43 113 -16 63 -89 98 -149 70z m108 -34 c20 -19 27 -35 27 -65 0 -50 -43
-97 -90 -97 -22 0 -41 9 -61 29 -37 38 -42 84 -13 129 31 48 89 50 137 4z"/>
<path d="M500 939 c-15 -28 -12 -55 11 -80 15 -17 19 -19 15 -6 -3 9 -1 17 4
17 6 0 10 -4 10 -9 0 -14 51 -5 61 10 15 23 10 66 -8 80 -16 13 -17 12 -4 -4
8 -9 11 -20 7 -24 -3 -4 -12 0 -19 9 -19 24 -66 29 -77 7z m53 -54 c9 -4 17
-12 17 -18 0 -5 -9 -2 -19 7 -13 12 -21 14 -26 6 -3 -5 -11 -8 -16 -4 -5 3 -7
9 -4 14 5 9 20 8 48 -5z"/>
<path d="M1232 937 c-27 -29 -28 -47 -2 -80 23 -29 59 -30 90 -2 26 23 25 60
0 85 -27 27 -62 25 -88 -3z m79 -4 c13 -16 12 -17 -3 -4 -10 7 -29 11 -43 9
-13 -3 -22 -1 -19 3 9 15 51 10 65 -8z m-54 -59 c-3 -3 -12 -4 -19 -1 -8 3 -5
6 6 6 11 1 17 -2 13 -5z"/>
<path d="M1356 839 c-50 -39 -21 -146 39 -143 67 3 81 13 65 45 -10 23 -10 23
4 5 15 -19 16 -19 24 4 13 34 3 68 -26 90 -32 26 -72 25 -106 -1z m96 -9 c16
-12 26 -30 26 -46 0 -25 -2 -25 -11 -8 -6 10 -11 26 -12 34 0 9 -9 15 -22 14
-13 -1 -20 3 -16 9 4 6 -4 7 -21 3 -18 -4 -25 -3 -21 4 10 16 50 12 77 -10z
m-12 -29 c0 -17 -18 -21 -24 -6 -3 9 0 15 9 15 8 0 15 -4 15 -9z m-80 -33 c0
-19 -16 -5 -17 14 -2 18 0 20 7 8 5 -8 10 -18 10 -22z m17 -33 c8 -9 13 -18
11 -21 -3 -2 -13 5 -23 16 -21 23 -11 27 12 5z m73 -7 c0 -5 -10 -6 -22 -3
-36 11 -41 22 -8 17 16 -2 30 -9 30 -14z"/>
<path d="M442 834 c33 -17 45 -56 29 -90 -15 -34 -14 -42 4 -18 22 29 18 72
-10 99 -13 14 -30 25 -37 25 -7 -1 -1 -7 14 -16z"/>
<path d="M330 795 c-13 -33 5 -79 36 -94 38 -17 43 -13 8 8 -33 20 -46 54 -33
89 5 12 6 22 3 22 -2 0 -9 -11 -14 -25z"/>
<path d="M1242 783 c14 -2 32 -11 40 -20 12 -15 11 -15 -11 -4 -13 7 -34 11
-47 8 -15 -2 -21 0 -18 7 3 6 -2 2 -10 -8 -20 -25 -20 -55 -1 -83 14 -20 33
-23 75 -14 3 0 14 14 23 31 15 24 16 34 6 52 -16 30 -29 38 -59 36 -25 -1 -25
-1 2 -5z"/>
<path d="M601 767 c2 -1 13 -9 24 -17 19 -14 19 -14 6 3 -7 9 -18 17 -24 17
-6 0 -8 -1 -6 -3z"/>
<path d="M526 723 c-6 -14 -5 -15 5 -6 7 7 10 15 7 18 -3 3 -9 -2 -12 -12z"/>
<path d="M642 710 c0 -14 2 -19 5 -12 2 6 2 18 0 25 -3 6 -5 1 -5 -13z"/>
<path d="M530 693 c0 -6 8 -17 18 -24 16 -13 16 -13 2 6 -8 11 -16 22 -17 24
-2 2 -3 0 -3 -6z"/>
<path d="M1471 667 c-35 -18 -64 -62 -63 -96 1 -36 31 -103 42 -96 5 3 10 0
12 -7 3 -7 24 -12 48 -13 37 -1 49 4 82 35 31 30 38 44 38 74 0 90 -82 143
-159 103z m84 -11 c18 -8 38 -23 44 -34 18 -33 13 -37 -10 -8 -12 16 -27 25
-36 22 -8 -3 -11 -1 -8 4 4 6 -9 10 -30 10 -20 0 -34 -4 -30 -9 3 -5 0 -13 -6
-17 -8 -4 -9 -3 -5 4 10 16 -6 15 -24 0 -8 -7 -6 -3 4 9 10 12 28 24 40 26 11
2 22 5 24 6 1 0 18 -5 37 -13z m-5 -51 c0 -8 -7 -15 -15 -15 -16 0 -20 12 -8
23 11 12 23 8 23 -8z m-96 -3 c3 -5 -1 -9 -9 -9 -8 0 -12 4 -9 9 3 4 7 8 9 8
2 0 6 -4 9 -8z m16 -61 c0 -5 -7 -11 -14 -14 -10 -4 -13 -1 -9 9 6 15 23 19
23 5z m120 -21 c0 -5 -4 -10 -10 -10 -5 0 -10 5 -10 10 0 6 5 10 10 10 6 0 10
-4 10 -10z m-47 -7 c-7 -2 -21 -2 -30 0 -10 3 -4 5 12 5 17 0 24 -2 18 -5z
m-50 -26 c-5 -8 -8 -7 -11 1 -2 7 -9 9 -14 6 -7 -4 -8 -2 -4 4 4 6 13 9 21 6
8 -4 12 -11 8 -17z m67 3 c0 -5 -2 -10 -4 -10 -3 0 -8 5 -11 10 -3 6 -1 10 4
10 6 0 11 -4 11 -10z m-25 -10 c3 -5 -1 -10 -10 -10 -9 0 -13 5 -10 10 3 6 8
10 10 10 2 0 7 -4 10 -10z"/>
<path d="M268 644 c-28 -15 -58 -61 -58 -88 0 -28 33 -84 57 -97 58 -31 130
-6 160 55 20 42 11 79 -27 117 -33 33 -86 38 -132 13z m129 -29 c41 -47 25
-123 -33 -150 -42 -20 -77 -11 -109 27 -36 42 -34 91 5 130 28 27 36 30 73 25
28 -4 49 -14 64 -32z"/>
<path d="M1056 618 c-9 -12 -16 -30 -16 -40 0 -26 36 -58 63 -57 21 2 22 2 1
6 -34 6 -57 38 -50 67 3 14 12 24 19 22 6 -1 9 -1 4 1 -4 3 -5 9 -1 14 11 19
-6 8 -20 -13z"/>
<path d="M1129 632 c7 -5 9 -12 5 -14 -5 -3 -4 -3 3 -2 15 3 25 -23 12 -31 -5
-4 -6 -11 -3 -17 4 -6 0 -14 -7 -19 -7 -4 -11 -11 -7 -14 4 -4 14 5 24 20 16
24 16 30 3 53 -8 14 -21 27 -29 29 -12 4 -12 3 -1 -5z"/>
<path d="M682 618 c-26 -26 -2 -98 34 -98 4 0 -2 7 -14 16 -24 17 -30 62 -10
82 7 7 10 12 7 12 -3 0 -10 -5 -17 -12z"/>
<path d="M767 620 c6 -8 13 -26 16 -40 l4 -25 2 26 c0 15 -7 33 -16 40 -16 12
-17 12 -6 -1z"/>
<path d="M1295 623 c31 -5 65 -29 65 -46 0 -6 -11 0 -24 12 -18 17 -33 22 -55
19 -16 -2 -28 -1 -25 4 3 4 -1 5 -9 2 -16 -6 -37 -47 -37 -72 0 -9 9 -32 20
-50 18 -29 24 -32 57 -29 22 2 37 8 36 15 -2 6 3 9 11 6 19 -7 46 34 46 69 0
40 -40 77 -82 76 l-33 -2 30 -4z m25 -53 c0 -5 -4 -10 -10 -10 -5 0 -10 5 -10
10 0 6 5 10 10 10 6 0 10 -4 10 -10z"/>
<path d="M594 599 c31 -24 35 -71 9 -109 l-17 -25 22 19 c30 26 30 88 0 116
-12 11 -26 20 -31 20 -5 0 2 -9 17 -21z"/>
<path d="M1066 591 c-4 -5 -2 -12 3 -15 5 -4 12 -2 15 3 4 5 2 12 -3 15 -5 4
-12 2 -15 -3z"/>
<path d="M477 583 c-21 -21 6 -113 34 -113 5 0 0 13 -12 29 -16 22 -20 38 -16
60 7 32 5 36 -6 24z"/>
<path d="M1098 543 c7 -3 16 -2 19 1 4 3 -2 6 -13 5 -11 0 -14 -3 -6 -6z"/>
<path d="M750 530 c-9 -6 -10 -10 -3 -10 6 0 15 5 18 10 8 12 4 12 -15 0z"/>
<path d="M999 470 c-9 -5 -22 -23 -28 -38 -16 -37 8 -102 36 -102 17 1 17 2
-1 15 -28 21 -31 115 -4 115 5 0 7 -7 4 -16 -3 -8 -2 -12 3 -9 6 3 9 14 8 25
-1 11 -1 20 -2 20 0 0 -7 -5 -16 -10z"/>
<path d="M1075 468 c50 -27 58 -71 20 -112 -13 -14 -20 -26 -15 -26 15 0 50
52 50 75 0 28 -36 75 -58 75 -14 -1 -13 -3 3 -12z"/>
<path d="M538 463 c6 -2 18 -2 25 0 6 3 1 5 -13 5 -14 0 -19 -2 -12 -5z"/>
<path d="M1060 446 c0 -2 8 -10 18 -17 15 -13 16 -12 3 4 -13 16 -21 21 -21
13z"/>
<path d="M1223 415 c-40 -17 -73 -61 -73 -99 0 -43 31 -90 70 -106 73 -30 168
43 156 119 -11 68 -90 112 -153 86z m95 -25 c17 -11 32 -25 32 -31 0 -6 -12
-1 -26 10 -27 21 -99 29 -120 14 -5 -5 -1 0 9 10 25 23 64 22 105 -3z m-26
-45 c0 -5 -5 -11 -11 -13 -6 -2 -11 4 -11 13 0 9 5 15 11 13 6 -2 11 -8 11
-13z m65 -37 c-3 -8 -6 -5 -6 6 -1 11 2 17 5 13 3 -3 4 -12 1 -19z m-73 -42
l50 1 -23 -18 c-28 -23 -59 -24 -89 -3 -26 18 -30 40 -4 28 9 -5 39 -8 66 -8z"/>
<path d="M1070 401 c0 -6 4 -13 10 -16 6 -3 7 1 4 9 -7 18 -14 21 -14 7z"/>
<path d="M1028 353 c7 -3 16 -2 19 1 4 3 -2 6 -13 5 -11 0 -14 -3 -6 -6z"/>
<path d="M1030 322 c0 -5 7 -9 15 -9 8 0 15 4 15 9 0 4 -7 8 -15 8 -8 0 -15
-4 -15 -8z"/>
<path d="M1187 189 c12 -12 24 -21 27 -18 2 2 -8 13 -22 23 l-27 19 22 -24z"/>
<path d="M1243 163 c9 -2 23 -2 30 0 6 3 -1 5 -18 5 -16 0 -22 -2 -12 -5z"/>
</g>
</svg>
